<mxfile host="app.diagrams.net" modified="2022-11-07T12:44:10.022Z" agent="5.0 (Windows NT 10.0; Win64; x64) AppleWebKit/537.36 (KHTML, like Gecko) Chrome/107.0.0.0 Safari/537.36" etag="21vFnn6Q2CHTie89H338" version="20.5.1" type="github" pages="2">
  <diagram id="sk2SdO5xGXT6MidOWkad" name="페이지-1">
    <mxGraphModel dx="989" dy="544" grid="1" gridSize="10" guides="1" tooltips="1" connect="1" arrows="1" fold="1" page="1" pageScale="1" pageWidth="827" pageHeight="1169" math="0" shadow="0">
      <root>
        <mxCell id="0" />
        <mxCell id="1" parent="0" />
        <mxCell id="63Co8L5Zi09F_V9ApB4c-1" value="" style="shape=table;startSize=0;container=1;collapsible=0;childLayout=tableLayout;" vertex="1" parent="1">
          <mxGeometry x="40" y="40" width="100" height="68" as="geometry" />
        </mxCell>
        <mxCell id="63Co8L5Zi09F_V9ApB4c-2" value="" style="shape=tableRow;horizontal=0;startSize=0;swimlaneHead=0;swimlaneBody=0;top=0;left=0;bottom=0;right=0;collapsible=0;dropTarget=0;fillColor=none;points=[[0,0.5],[1,0.5]];portConstraint=eastwest;" vertex="1" parent="63Co8L5Zi09F_V9ApB4c-1">
          <mxGeometry width="100" height="20" as="geometry" />
        </mxCell>
        <mxCell id="63Co8L5Zi09F_V9ApB4c-3" value="&lt;font face=&quot;Comic Sans MS&quot;&gt;train&amp;nbsp;&lt;/font&gt;" style="shape=partialRectangle;html=1;whiteSpace=wrap;connectable=0;overflow=hidden;fillColor=none;top=0;left=0;bottom=0;right=0;pointerEvents=1;align=left;" vertex="1" parent="63Co8L5Zi09F_V9ApB4c-2">
          <mxGeometry width="100" height="20" as="geometry">
            <mxRectangle width="100" height="20" as="alternateBounds" />
          </mxGeometry>
        </mxCell>
        <mxCell id="63Co8L5Zi09F_V9ApB4c-4" value="" style="shape=tableRow;horizontal=0;startSize=0;swimlaneHead=0;swimlaneBody=0;top=0;left=0;bottom=0;right=0;collapsible=0;dropTarget=0;fillColor=none;points=[[0,0.5],[1,0.5]];portConstraint=eastwest;" vertex="1" parent="63Co8L5Zi09F_V9ApB4c-1">
          <mxGeometry y="20" width="100" height="48" as="geometry" />
        </mxCell>
        <mxCell id="63Co8L5Zi09F_V9ApB4c-5" value="&lt;font style=&quot;font-size: 9px;&quot; face=&quot;Comic Sans MS&quot;&gt;- &lt;u&gt;train_uuid&lt;/u&gt;&lt;br&gt;- train_type&lt;br&gt;&lt;/font&gt;" style="shape=partialRectangle;html=1;whiteSpace=wrap;connectable=0;overflow=hidden;fillColor=none;top=0;left=0;bottom=0;right=0;pointerEvents=1;align=left;" vertex="1" parent="63Co8L5Zi09F_V9ApB4c-4">
          <mxGeometry width="100" height="48" as="geometry">
            <mxRectangle width="100" height="48" as="alternateBounds" />
          </mxGeometry>
        </mxCell>
        <mxCell id="63Co8L5Zi09F_V9ApB4c-6" value="" style="shape=table;startSize=0;container=1;collapsible=0;childLayout=tableLayout;" vertex="1" parent="1">
          <mxGeometry x="200" y="40" width="100" height="80" as="geometry" />
        </mxCell>
        <mxCell id="63Co8L5Zi09F_V9ApB4c-7" value="" style="shape=tableRow;horizontal=0;startSize=0;swimlaneHead=0;swimlaneBody=0;top=0;left=0;bottom=0;right=0;collapsible=0;dropTarget=0;fillColor=none;points=[[0,0.5],[1,0.5]];portConstraint=eastwest;" vertex="1" parent="63Co8L5Zi09F_V9ApB4c-6">
          <mxGeometry width="100" height="20" as="geometry" />
        </mxCell>
        <mxCell id="63Co8L5Zi09F_V9ApB4c-8" value="&lt;font face=&quot;Comic Sans MS&quot;&gt;driver&lt;/font&gt;" style="shape=partialRectangle;html=1;whiteSpace=wrap;connectable=0;overflow=hidden;fillColor=none;top=0;left=0;bottom=0;right=0;pointerEvents=1;align=left;" vertex="1" parent="63Co8L5Zi09F_V9ApB4c-7">
          <mxGeometry width="100" height="20" as="geometry">
            <mxRectangle width="100" height="20" as="alternateBounds" />
          </mxGeometry>
        </mxCell>
        <mxCell id="63Co8L5Zi09F_V9ApB4c-9" value="" style="shape=tableRow;horizontal=0;startSize=0;swimlaneHead=0;swimlaneBody=0;top=0;left=0;bottom=0;right=0;collapsible=0;dropTarget=0;fillColor=none;points=[[0,0.5],[1,0.5]];portConstraint=eastwest;" vertex="1" parent="63Co8L5Zi09F_V9ApB4c-6">
          <mxGeometry y="20" width="100" height="60" as="geometry" />
        </mxCell>
        <mxCell id="63Co8L5Zi09F_V9ApB4c-10" value="&lt;span style=&quot;font-size: 10px;&quot;&gt;&lt;u&gt;&lt;font face=&quot;Comic Sans MS&quot;&gt;-&amp;nbsp;&lt;/font&gt;&lt;/u&gt;&lt;font style=&quot;&quot; face=&quot;Comic Sans MS&quot;&gt;&lt;u&gt;driver_uuid&amp;nbsp;&lt;/u&gt;&lt;br&gt;&lt;/font&gt;&lt;font face=&quot;Comic Sans MS&quot;&gt;- driver_name&lt;br&gt;- driver_sex&lt;/font&gt;&amp;nbsp;&lt;br&gt;&lt;/span&gt;" style="shape=partialRectangle;html=1;whiteSpace=wrap;connectable=0;overflow=hidden;fillColor=none;top=0;left=0;bottom=0;right=0;pointerEvents=1;align=left;" vertex="1" parent="63Co8L5Zi09F_V9ApB4c-9">
          <mxGeometry width="100" height="60" as="geometry">
            <mxRectangle width="100" height="60" as="alternateBounds" />
          </mxGeometry>
        </mxCell>
        <mxCell id="63Co8L5Zi09F_V9ApB4c-22" value="" style="shape=table;startSize=0;container=1;collapsible=0;childLayout=tableLayout;" vertex="1" parent="1">
          <mxGeometry x="40" y="160" width="100" height="80" as="geometry" />
        </mxCell>
        <mxCell id="63Co8L5Zi09F_V9ApB4c-23" value="" style="shape=tableRow;horizontal=0;startSize=0;swimlaneHead=0;swimlaneBody=0;top=0;left=0;bottom=0;right=0;collapsible=0;dropTarget=0;fillColor=none;points=[[0,0.5],[1,0.5]];portConstraint=eastwest;" vertex="1" parent="63Co8L5Zi09F_V9ApB4c-22">
          <mxGeometry width="100" height="20" as="geometry" />
        </mxCell>
        <mxCell id="63Co8L5Zi09F_V9ApB4c-24" value="&lt;font face=&quot;Comic Sans MS&quot;&gt;station&lt;/font&gt;" style="shape=partialRectangle;html=1;whiteSpace=wrap;connectable=0;overflow=hidden;fillColor=none;top=0;left=0;bottom=0;right=0;pointerEvents=1;align=left;" vertex="1" parent="63Co8L5Zi09F_V9ApB4c-23">
          <mxGeometry width="100" height="20" as="geometry">
            <mxRectangle width="100" height="20" as="alternateBounds" />
          </mxGeometry>
        </mxCell>
        <mxCell id="63Co8L5Zi09F_V9ApB4c-25" value="" style="shape=tableRow;horizontal=0;startSize=0;swimlaneHead=0;swimlaneBody=0;top=0;left=0;bottom=0;right=0;collapsible=0;dropTarget=0;fillColor=none;points=[[0,0.5],[1,0.5]];portConstraint=eastwest;" vertex="1" parent="63Co8L5Zi09F_V9ApB4c-22">
          <mxGeometry y="20" width="100" height="60" as="geometry" />
        </mxCell>
        <mxCell id="63Co8L5Zi09F_V9ApB4c-26" value="&lt;span style=&quot;font-size: 10px;&quot;&gt;&lt;u&gt;&lt;font face=&quot;Comic Sans MS&quot;&gt;- station&lt;/font&gt;&lt;/u&gt;&lt;font style=&quot;&quot; face=&quot;Comic Sans MS&quot;&gt;&lt;u&gt;_uuid&amp;nbsp;&lt;/u&gt;&lt;br&gt;&lt;/font&gt;&lt;font face=&quot;Comic Sans MS&quot;&gt;- station_location&lt;br&gt;- station_name&lt;/font&gt;&lt;br&gt;&lt;/span&gt;" style="shape=partialRectangle;html=1;whiteSpace=wrap;connectable=0;overflow=hidden;fillColor=none;top=0;left=0;bottom=0;right=0;pointerEvents=1;align=left;" vertex="1" parent="63Co8L5Zi09F_V9ApB4c-25">
          <mxGeometry width="100" height="60" as="geometry">
            <mxRectangle width="100" height="60" as="alternateBounds" />
          </mxGeometry>
        </mxCell>
        <mxCell id="63Co8L5Zi09F_V9ApB4c-27" value="" style="shape=table;startSize=0;container=1;collapsible=0;childLayout=tableLayout;" vertex="1" parent="1">
          <mxGeometry x="200" y="160" width="120" height="87" as="geometry" />
        </mxCell>
        <mxCell id="63Co8L5Zi09F_V9ApB4c-28" value="" style="shape=tableRow;horizontal=0;startSize=0;swimlaneHead=0;swimlaneBody=0;top=0;left=0;bottom=0;right=0;collapsible=0;dropTarget=0;fillColor=none;points=[[0,0.5],[1,0.5]];portConstraint=eastwest;" vertex="1" parent="63Co8L5Zi09F_V9ApB4c-27">
          <mxGeometry width="120" height="20" as="geometry" />
        </mxCell>
        <mxCell id="63Co8L5Zi09F_V9ApB4c-29" value="&lt;font face=&quot;Comic Sans MS&quot;&gt;train-schedule&lt;/font&gt;" style="shape=partialRectangle;html=1;whiteSpace=wrap;connectable=0;overflow=hidden;fillColor=none;top=0;left=0;bottom=0;right=0;pointerEvents=1;align=left;" vertex="1" parent="63Co8L5Zi09F_V9ApB4c-28">
          <mxGeometry width="120" height="20" as="geometry">
            <mxRectangle width="120" height="20" as="alternateBounds" />
          </mxGeometry>
        </mxCell>
        <mxCell id="63Co8L5Zi09F_V9ApB4c-30" value="" style="shape=tableRow;horizontal=0;startSize=0;swimlaneHead=0;swimlaneBody=0;top=0;left=0;bottom=0;right=0;collapsible=0;dropTarget=0;fillColor=none;points=[[0,0.5],[1,0.5]];portConstraint=eastwest;" vertex="1" parent="63Co8L5Zi09F_V9ApB4c-27">
          <mxGeometry y="20" width="120" height="67" as="geometry" />
        </mxCell>
        <mxCell id="63Co8L5Zi09F_V9ApB4c-31" value="&lt;span style=&quot;font-size: 10px;&quot;&gt;&lt;font style=&quot;&quot; face=&quot;Comic Sans MS&quot;&gt;&lt;u&gt;- train_schedule_uuid&lt;br&gt;&lt;/u&gt;- station&lt;/font&gt;&lt;font style=&quot;&quot; face=&quot;Comic Sans MS&quot;&gt;_uuid&amp;nbsp;&lt;br&gt;&lt;/font&gt;&lt;font face=&quot;Comic Sans MS&quot;&gt;- train_uuid&lt;br&gt;- time&lt;/font&gt;&lt;br&gt;&lt;/span&gt;" style="shape=partialRectangle;html=1;whiteSpace=wrap;connectable=0;overflow=hidden;fillColor=none;top=0;left=0;bottom=0;right=0;pointerEvents=1;align=left;" vertex="1" parent="63Co8L5Zi09F_V9ApB4c-30">
          <mxGeometry width="120" height="67" as="geometry">
            <mxRectangle width="120" height="67" as="alternateBounds" />
          </mxGeometry>
        </mxCell>
        <mxCell id="63Co8L5Zi09F_V9ApB4c-33" value="" style="shape=table;startSize=0;container=1;collapsible=0;childLayout=tableLayout;" vertex="1" parent="1">
          <mxGeometry x="360" y="40" width="100" height="80" as="geometry" />
        </mxCell>
        <mxCell id="63Co8L5Zi09F_V9ApB4c-34" value="" style="shape=tableRow;horizontal=0;startSize=0;swimlaneHead=0;swimlaneBody=0;top=0;left=0;bottom=0;right=0;collapsible=0;dropTarget=0;fillColor=none;points=[[0,0.5],[1,0.5]];portConstraint=eastwest;" vertex="1" parent="63Co8L5Zi09F_V9ApB4c-33">
          <mxGeometry width="100" height="20" as="geometry" />
        </mxCell>
        <mxCell id="63Co8L5Zi09F_V9ApB4c-35" value="&lt;font face=&quot;Comic Sans MS&quot;&gt;passenger&lt;/font&gt;" style="shape=partialRectangle;html=1;whiteSpace=wrap;connectable=0;overflow=hidden;fillColor=none;top=0;left=0;bottom=0;right=0;pointerEvents=1;align=left;" vertex="1" parent="63Co8L5Zi09F_V9ApB4c-34">
          <mxGeometry width="100" height="20" as="geometry">
            <mxRectangle width="100" height="20" as="alternateBounds" />
          </mxGeometry>
        </mxCell>
        <mxCell id="63Co8L5Zi09F_V9ApB4c-36" value="" style="shape=tableRow;horizontal=0;startSize=0;swimlaneHead=0;swimlaneBody=0;top=0;left=0;bottom=0;right=0;collapsible=0;dropTarget=0;fillColor=none;points=[[0,0.5],[1,0.5]];portConstraint=eastwest;" vertex="1" parent="63Co8L5Zi09F_V9ApB4c-33">
          <mxGeometry y="20" width="100" height="60" as="geometry" />
        </mxCell>
        <mxCell id="63Co8L5Zi09F_V9ApB4c-37" value="&lt;span style=&quot;font-size: 10px;&quot;&gt;&lt;u&gt;&lt;font face=&quot;Comic Sans MS&quot;&gt;-&amp;nbsp;&lt;/font&gt;&lt;/u&gt;&lt;font style=&quot;&quot; face=&quot;Comic Sans MS&quot;&gt;&lt;u&gt;passenger_uuid&lt;/u&gt;&lt;br&gt;&lt;/font&gt;&lt;font face=&quot;Comic Sans MS&quot;&gt;- passenger_name&lt;/font&gt;&lt;br&gt;&lt;/span&gt;" style="shape=partialRectangle;html=1;whiteSpace=wrap;connectable=0;overflow=hidden;fillColor=none;top=0;left=0;bottom=0;right=0;pointerEvents=1;align=left;" vertex="1" parent="63Co8L5Zi09F_V9ApB4c-36">
          <mxGeometry width="100" height="60" as="geometry">
            <mxRectangle width="100" height="60" as="alternateBounds" />
          </mxGeometry>
        </mxCell>
      </root>
    </mxGraphModel>
  </diagram>
  <diagram id="0wZeXdWf-wLsP2HfGNVs" name="페이지-2">
    <mxGraphModel dx="1038" dy="571" grid="1" gridSize="10" guides="1" tooltips="1" connect="1" arrows="1" fold="1" page="1" pageScale="1" pageWidth="827" pageHeight="1169" math="0" shadow="0">
      <root>
        <mxCell id="0" />
        <mxCell id="1" parent="0" />
      </root>
    </mxGraphModel>
  </diagram>
</mxfile>
